# xmcd
#
# Track frame offsets:
#	150
#	16835
#	33052
#	50749
#	73201
#	87295
#	99460
#	117039
#	131859
#	153378
#	176818
#	193642
#	214427
#	238679
#	259968
#	277935
#
# Disc length: 3970 seconds
#
# Revision: 8
# Processed by: cddbd v1.4PL0 Copyright (c) Steve Scherf et al.
# Submitted via: EasyCDDAExtractor 6.2.0.3
#
DISCID=e70f8010
DTITLE=DANZER FENDRICH AMBROS - AUSTRIA 3 VOL 1
DYEAR=1998
DGENRE=Austropop
TTITLE0=Laﬂ mi amoi no d'Sunn aufgeh' segn
TTITLE1=Weiﬂe Pferde
TTITLE2=De Kinetten wo i schlof
TTITLE3=Tr‰nen trocknen schnell
TTITLE4=Zwickt's mi
TTITLE5=I bin a Kniera
TTITLE6=Es lebe der Sport
TTITLE7=Die Blume aus dem Gemeindebau
TTITLE8=Griechenland
TTITLE9=Heite drah i mi ham
TTITLE10=Manchmal denk i no an di
TTITLE11=Langsam wachs ma z'samm
TTITLE12=Groﬂe Dinge
TTITLE13=Macho Macho
TTITLE14=I Am From Austria (Album Remix)
TTITLE15=Freunde (Studio-Mix)
EXTD=
EXTT0=
EXTT1=
EXTT2=
EXTT3=
EXTT4=
EXTT5=
EXTT6=
EXTT7=
EXTT8=
EXTT9=
EXTT10=
EXTT11=
EXTT12=
EXTT13=
EXTT14=
EXTT15=
PLAYORDER=
